<?xml version="1.0" encoding="UTF-8"?>
<svg xmlns="http://www.w3.org/2000/svg" xmlns:xlink="http://www.w3.org/1999/xlink" width="854" height="480" viewBox="0 0 854 480">
<defs>
<g>
<g id="glyph-0-0">
<path d="M 0.703125 0 L 0.703125 -0.890625 L 2.109375 -0.890625 L 2.109375 -10.046875 L 0.703125 -10.046875 L 0.703125 -10.9375 L 10.53125 -10.9375 L 10.53125 -8.359375 L 9.515625 -8.359375 L 9.515625 -9.9375 L 4.921875 -9.9375 L 4.921875 -6.421875 L 7.78125 -6.421875 L 7.78125 -7.8125 L 8.796875 -7.8125 L 8.796875 -4.03125 L 7.78125 -4.03125 L 7.78125 -5.421875 L 4.921875 -5.421875 L 4.921875 -1 L 9.65625 -1 L 9.65625 -2.578125 L 10.671875 -2.578125 L 10.671875 0 Z "/>
</g>
<g id="glyph-0-1">
<path d="M 0.515625 0 L 0.515625 -0.890625 L 1.625 -0.890625 L 1.625 -6.90625 L 0.515625 -6.90625 L 0.515625 -7.78125 L 4.21875 -7.78125 L 4.21875 -6.6875 C 4.53125 -7.15625 4.882812 -7.488281 5.28125 -7.6875 C 5.675781 -7.894531 6.179688 -8 6.796875 -8 C 7.671875 -8 8.332031 -7.738281 8.78125 -7.21875 C 9.226562 -6.707031 9.453125 -5.953125 9.453125 -4.953125 L 9.453125 -0.890625 L 10.5625 -0.890625 L 10.5625 0 L 5.90625 0 L 5.90625 -0.890625 L 6.859375 -0.890625 L 6.859375 -5.03125 C 6.859375 -5.6875 6.769531 -6.140625 6.59375 -6.390625 C 6.425781 -6.648438 6.140625 -6.78125 5.734375 -6.78125 C 5.203125 -6.78125 4.816406 -6.585938 4.578125 -6.203125 C 4.335938 -5.816406 4.21875 -5.207031 4.21875 -4.375 L 4.21875 -0.890625 L 5.15625 -0.890625 L 5.15625 0 Z "/>
</g>
<g id="glyph-0-2">
<path d="M 6.4375 -3.515625 L 6.4375 -4.28125 C 6.4375 -5.1875 6.316406 -5.84375 6.078125 -6.25 C 5.847656 -6.65625 5.476562 -6.859375 4.96875 -6.859375 C 4.425781 -6.859375 4.046875 -6.644531 3.828125 -6.21875 C 3.617188 -5.789062 3.515625 -5.015625 3.515625 -3.890625 C 3.515625 -2.773438 3.625 -2.003906 3.84375 -1.578125 C 4.0625 -1.148438 4.4375 -0.9375 4.96875 -0.9375 C 5.476562 -0.9375 5.847656 -1.132812 6.078125 -1.53125 C 6.316406 -1.9375 6.4375 -2.597656 6.4375 -3.515625 Z M 9.03125 -0.890625 L 10.140625 -0.890625 L 10.140625 0 L 6.4375 0 L 6.4375 -0.984375 C 6.21875 -0.578125 5.921875 -0.273438 5.546875 -0.078125 C 5.171875 0.117188 4.710938 0.21875 4.171875 0.21875 C 3.066406 0.21875 2.195312 -0.144531 1.5625 -0.875 C 0.925781 -1.613281 0.609375 -2.617188 0.609375 -3.890625 C 0.609375 -5.171875 0.925781 -6.175781 1.5625 -6.90625 C 2.195312 -7.632812 3.066406 -8 4.171875 -8 C 4.710938 -8 5.171875 -7.898438 5.546875 -7.703125 C 5.921875 -7.503906 6.21875 -7.203125 6.4375 -6.796875 L 6.4375 -10.515625 L 5.328125 -10.515625 L 5.328125 -11.390625 L 9.03125 -11.390625 Z "/>
</g>
<g id="glyph-0-3">
</g>
<g id="glyph-0-4">
<path d="M 5.015625 -0.609375 C 5.554688 -0.609375 5.9375 -0.84375 6.15625 -1.3125 C 6.382812 -1.78125 6.5 -2.640625 6.5 -3.890625 C 6.5 -5.140625 6.390625 -6 6.171875 -6.46875 C 5.953125 -6.9375 5.566406 -7.171875 5.015625 -7.171875 C 4.460938 -7.171875 4.070312 -6.929688 3.84375 -6.453125 C 3.625 -5.984375 3.515625 -5.128906 3.515625 -3.890625 C 3.515625 -2.648438 3.625 -1.789062 3.84375 -1.3125 C 4.070312 -0.84375 4.460938 -0.609375 5.015625 -0.609375 Z M 5.015625 0.21875 C 3.640625 0.21875 2.5625 -0.144531 1.78125 -0.875 C 1 -1.613281 0.609375 -2.617188 0.609375 -3.890625 C 0.609375 -5.179688 1 -6.1875 1.78125 -6.90625 C 2.5625 -7.632812 3.640625 -8 5.015625 -8 C 6.390625 -8 7.460938 -7.632812 8.234375 -6.90625 C 9.015625 -6.1875 9.40625 -5.179688 9.40625 -3.890625 C 9.40625 -2.617188 9.015625 -1.613281 8.234375 -0.875 C 7.453125 -0.144531 6.378906 0.21875 5.015625 0.21875 Z "/>
</g>
<g id="glyph-0-5">
<path d="M 7.265625 -9.453125 L 6.4375 -9.453125 C 6.394531 -9.828125 6.28125 -10.109375 6.09375 -10.296875 C 5.914062 -10.484375 5.660156 -10.578125 5.328125 -10.578125 C 4.929688 -10.578125 4.644531 -10.4375 4.46875 -10.15625 C 4.300781 -9.875 4.21875 -9.421875 4.21875 -8.796875 L 4.21875 -7.78125 L 6.171875 -7.78125 L 6.171875 -6.90625 L 4.21875 -6.90625 L 4.21875 -0.890625 L 5.71875 -0.890625 L 5.71875 0 L 0.515625 0 L 0.515625 -0.890625 L 1.625 -0.890625 L 1.625 -6.90625 L 0.46875 -6.90625 L 0.46875 -7.78125 L 1.625 -7.78125 L 1.625 -8.765625 C 1.625 -9.628906 1.898438 -10.28125 2.453125 -10.71875 C 3.003906 -11.164062 3.8125 -11.390625 4.875 -11.390625 C 5.289062 -11.390625 5.695312 -11.363281 6.09375 -11.3125 C 6.488281 -11.269531 6.878906 -11.207031 7.265625 -11.125 Z "/>
</g>
<g id="glyph-0-6">
<path d="M 0.703125 0 L 0.703125 -0.890625 L 2.109375 -0.890625 L 2.109375 -10.046875 L 0.703125 -10.046875 L 0.703125 -10.9375 L 6.328125 -10.9375 L 6.328125 -10.046875 L 4.921875 -10.046875 L 4.921875 -1 L 9.234375 -1 L 9.234375 -2.734375 L 10.21875 -2.734375 L 10.21875 0 Z "/>
</g>
<g id="glyph-0-7">
<path d="M 6.015625 -4.390625 C 6.015625 -5.421875 5.914062 -6.140625 5.71875 -6.546875 C 5.53125 -6.960938 5.207031 -7.171875 4.75 -7.171875 C 4.3125 -7.171875 3.992188 -6.96875 3.796875 -6.5625 C 3.609375 -6.15625 3.515625 -5.476562 3.515625 -4.53125 L 3.515625 -4.390625 Z M 8.859375 -3.515625 L 3.515625 -3.515625 L 3.515625 -3.46875 C 3.515625 -2.457031 3.664062 -1.726562 3.96875 -1.28125 C 4.269531 -0.832031 4.753906 -0.609375 5.421875 -0.609375 C 5.984375 -0.609375 6.4375 -0.757812 6.78125 -1.0625 C 7.132812 -1.363281 7.359375 -1.796875 7.453125 -2.359375 L 8.671875 -2.359375 C 8.460938 -1.472656 8.046875 -0.820312 7.421875 -0.40625 C 6.796875 0.0078125 5.921875 0.21875 4.796875 0.21875 C 3.453125 0.21875 2.414062 -0.132812 1.6875 -0.84375 C 0.96875 -1.5625 0.609375 -2.578125 0.609375 -3.890625 C 0.609375 -5.179688 0.976562 -6.1875 1.71875 -6.90625 C 2.457031 -7.632812 3.484375 -8 4.796875 -8 C 6.085938 -8 7.078125 -7.617188 7.765625 -6.859375 C 8.453125 -6.097656 8.816406 -4.984375 8.859375 -3.515625 Z "/>
</g>
<g id="glyph-0-8">
<path d="M 0.703125 -0.234375 L 0.703125 -2.40625 L 1.53125 -2.40625 C 1.601562 -1.820312 1.820312 -1.375 2.1875 -1.0625 C 2.550781 -0.757812 3.046875 -0.609375 3.671875 -0.609375 C 4.203125 -0.609375 4.609375 -0.703125 4.890625 -0.890625 C 5.171875 -1.078125 5.3125 -1.335938 5.3125 -1.671875 C 5.3125 -1.984375 5.222656 -2.222656 5.046875 -2.390625 C 4.867188 -2.566406 4.519531 -2.71875 4 -2.84375 L 2.9375 -3.125 C 2.132812 -3.320312 1.550781 -3.609375 1.1875 -3.984375 C 0.820312 -4.359375 0.640625 -4.863281 0.640625 -5.5 C 0.640625 -6.34375 0.929688 -6.96875 1.515625 -7.375 C 2.109375 -7.789062 3.015625 -8 4.234375 -8 C 4.691406 -8 5.179688 -7.957031 5.703125 -7.875 C 6.222656 -7.800781 6.796875 -7.6875 7.421875 -7.53125 L 7.421875 -5.5625 L 6.59375 -5.5625 C 6.550781 -6.09375 6.363281 -6.492188 6.03125 -6.765625 C 5.695312 -7.035156 5.21875 -7.171875 4.59375 -7.171875 C 4.0625 -7.171875 3.660156 -7.085938 3.390625 -6.921875 C 3.117188 -6.753906 2.984375 -6.507812 2.984375 -6.1875 C 2.984375 -5.914062 3.0625 -5.703125 3.21875 -5.546875 C 3.375 -5.398438 3.65625 -5.273438 4.0625 -5.171875 L 5.125 -4.90625 C 6.144531 -4.644531 6.847656 -4.320312 7.234375 -3.9375 C 7.628906 -3.5625 7.828125 -3.035156 7.828125 -2.359375 C 7.828125 -1.484375 7.515625 -0.832031 6.890625 -0.40625 C 6.265625 0.0078125 5.289062 0.21875 3.96875 0.21875 C 3.476562 0.21875 2.960938 0.179688 2.421875 0.109375 C 1.878906 0.0351562 1.304688 -0.078125 0.703125 -0.234375 Z "/>
</g>
</g>
</defs>
<g fill="rgb(100%, 100%, 100%)" fill-opacity="1">
<use xlink:href="#glyph-0-0" x="30" y="34.084961"/>
<use xlink:href="#glyph-0-1" x="41" y="34.084961"/>
<use xlink:href="#glyph-0-2" x="52" y="34.084961"/>
<use xlink:href="#glyph-0-3" x="62" y="34.084961"/>
<use xlink:href="#glyph-0-4" x="67" y="34.084961"/>
<use xlink:href="#glyph-0-5" x="77" y="34.084961"/>
<use xlink:href="#glyph-0-3" x="83" y="34.084961"/>
<use xlink:href="#glyph-0-6" x="88" y="34.084961"/>
<use xlink:href="#glyph-0-7" x="99" y="34.084961"/>
<use xlink:href="#glyph-0-8" x="109" y="34.084961"/>
<use xlink:href="#glyph-0-8" x="117" y="34.084961"/>
<use xlink:href="#glyph-0-4" x="125" y="34.084961"/>
<use xlink:href="#glyph-0-1" x="135" y="34.084961"/>
</g>
</svg>
